<svg id="Layer_1" data-name="Layer 1" xmlns="http://www.w3.org/2000/svg" viewBox="0 0 51.0631 54.8059">
  <defs>
    <style>
      .cls-1 {
        fill: #fff;
        stroke: #71c0ad;
        stroke-linecap: round;
        stroke-linejoin: round;
        stroke-width: 1.5px;
      }
    </style>
  </defs>
  <title>clock</title>
  <g>
    <path class="cls-1" d="M24.9344,8.1716h0a1.267,1.267,0,0,0,1.267-1.267V5.4723h-2.534V6.9046A1.2671,1.2671,0,0,0,24.9344,8.1716Z"/>
    <path class="cls-1" d="M24.9344,41.7063h0a1.267,1.267,0,0,0-1.267,1.267v1.4322h2.534V42.9733A1.2669,1.2669,0,0,0,24.9344,41.7063Z"/>
    <path class="cls-1" d="M8.1671,24.9389h0A1.2671,1.2671,0,0,0,6.9,23.6719H5.4678v2.534H6.9A1.267,1.267,0,0,0,8.1671,24.9389Z"/>
    <path class="cls-1" d="M41.7018,24.9389h0a1.2669,1.2669,0,0,0,1.267,1.267H44.401v-2.534H42.9688A1.267,1.267,0,0,0,41.7018,24.9389Z"/>
    <path class="cls-1" d="M24.93.75A24.19,24.19,0,1,0,49.12,24.94,24.1876,24.1876,0,0,0,24.93.75Zm0,42.88A18.69,18.69,0,1,1,43.62,24.94,18.6843,18.6843,0,0,1,24.93,43.63Z"/>
    <path class="cls-1" d="M24.9344,12.738h0a1.267,1.267,0,0,1,1.267,1.267v9.4323a0,0,0,0,1,0,0h-2.534a0,0,0,0,1,0,0V14.005A1.267,1.267,0,0,1,24.9344,12.738Z"/>
    <path class="cls-1" d="M19.0362,20.73h0a1.267,1.267,0,0,1,1.267,1.267v7.4322a0,0,0,0,1,0,0h-2.534a0,0,0,0,1,0,0V21.9971a1.267,1.267,0,0,1,1.267-1.267Z" transform="translate(-6.0435 44.1159) rotate(-90)"/>
    <circle class="cls-1" cx="24.9344" cy="24.9389" r="3.3787"/>
    <circle class="cls-1" cx="39.3131" cy="43.0559" r="11"/>
    <path class="cls-1" d="M35.8062,45.8056s-.0494,3.1323,3.6544,3.1323c4.3952.08,4.7162-5.1232,0-6.0257-5.5228-.9822-3.5309-5.8665.0247-5.7869a3.0919,3.0919,0,0,1,3.3581,3.3713"/>
    <line class="cls-1" x1="39.3131" y1="37.1296" x2="39.3131" y2="35.4809"/>
    <line class="cls-1" x1="39.3131" y1="50.6309" x2="39.3131" y2="48.9377"/>
  </g>
</svg>
