<svg id="Layer_1" data-name="Layer 1" xmlns="http://www.w3.org/2000/svg" viewBox="0 0 55.1501 55.7439">
  <defs>
    <style>
      .cls-1 {
        fill: #fff;
        stroke: #71c0ad;
        stroke-linecap: round;
        stroke-linejoin: round;
        stroke-width: 1.5px;
      }
    </style>
  </defs>
  <title>teeth</title>
  <g>
    <path class="cls-1" d="M35.9907,36.0339c-4.31,9.39.19,18.96-6.57,18.96-6.75,0-1.69-16.89-9.57-16.89s-2.82,16.89-9.57,16.89c-6.76,0-2.26-9.57-6.57-18.96-4.32-9.38-5.34-24.17,6.94-21.07,4.06,1.03,5.8679,2.59,9.2,2.59,3.613,0,5.14-1.56,9.2-2.59C41.3306,11.8639,40.3107,26.6539,35.9907,36.0339Z"/>
    <line class="cls-1" x1="30.9133" y1="11.4023" x2="30.9133" y2="0.75"/>
    <line class="cls-1" x1="25.5871" y1="6.0762" x2="36.2395" y2="6.0762"/>
    <line class="cls-1" x1="49.0739" y1="29.4024" x2="49.0739" y2="18.75"/>
    <line class="cls-1" x1="43.7477" y1="24.0762" x2="54.4001" y2="24.0762"/>
    <line class="cls-1" x1="30.9133" y1="11.4023" x2="30.9133" y2="0.75"/>
  </g>
</svg>
