<svg id="Layer_1" data-name="Layer 1" xmlns="http://www.w3.org/2000/svg" viewBox="0 0 55.5 56">
  <defs>
    <style>
      .cls-1 {
        fill: #fff;
        stroke: #71c0ad;
        stroke-linecap: round;
        stroke-linejoin: round;
        stroke-width: 1.5px;
      }
    </style>
  </defs>
  <title>letter</title>
  <g>
    <path class="cls-1" d="M52.5609,6.75H13.75v-6h37a3.9989,3.9989,0,0,1,4,4v2"/>
    <line class="cls-1" x1="54.75" y1="6.75" x2="52.5609" y2="6.75"/>
    <path class="cls-1" d="M6.75,42.75v-38a3.9989,3.9989,0,0,1,4-4h37v42"/>
    <rect class="cls-1" x="14.75" y="4.75" width="26" height="4.1383" rx="2.0691"/>
    <path class="cls-1" d="M4.75,48.75a3.9989,3.9989,0,0,1-4-4v-2h47v2a3.9989,3.9989,0,0,1-4,4Z"/>
    <polygon class="cls-1" points="40.75 37.75 32.75 37.75 32.75 55.25 36.75 51.361 40.75 55.25 40.75 37.75"/>
    <path class="cls-1" d="M41.371,44.6351l-.9731.3108a1.0107,1.0107,0,0,0-.44.2824l-.6873.7558a1.01,1.01,0,0,1-.9616.3071l-.9982-.2174a1.01,1.01,0,0,0-.5219.0247l-.9731.3108a1.0091,1.0091,0,0,1-.9863-.2148l-.7557-.6873a1.01,1.01,0,0,0-.4644-.24l-.9982-.2174a1.0093,1.0093,0,0,1-.7467-.6791l-.3108-.9732a1.0113,1.0113,0,0,0-.2824-.44l-.7558-.6873a1.01,1.01,0,0,1-.3071-.9616l.2174-.9982a1.01,1.01,0,0,0-.0247-.5219l-.3108-.9731a1.0091,1.0091,0,0,1,.2148-.9863l.6873-.7557a1.01,1.01,0,0,0,.24-.4644l.2174-.9982a1.0093,1.0093,0,0,1,.6791-.7467l.9732-.3108a1.01,1.01,0,0,0,.44-.2824l.6873-.7558a1.01,1.01,0,0,1,.9616-.3071l.9982.2174a1.01,1.01,0,0,0,.5219-.0247l.9731-.3108a1.0091,1.0091,0,0,1,.9863.2148l.7557.6873a1.01,1.01,0,0,0,.4644.24l.9982.2174a1.0092,1.0092,0,0,1,.7467.6792l.3108.9731a1.01,1.01,0,0,0,.2824.44l.7558.6873a1.01,1.01,0,0,1,.3071.9616l-.2174.9982a1.01,1.01,0,0,0,.0247.5219l.3108.9731a1.0091,1.0091,0,0,1-.2148.9863l-.6873.7558a1.0092,1.0092,0,0,0-.24.4643l-.2174.9982A1.0092,1.0092,0,0,1,41.371,44.6351Z"/>
    <line class="cls-1" x1="40.75" y1="13.75" x2="35.78" y2="13.75"/>
    <line class="cls-1" x1="19.67" y1="13.75" x2="15.75" y2="13.75"/>
    <line class="cls-1" x1="32.72" y1="13.75" x2="22.72" y2="13.75"/>
    <line class="cls-1" x1="40.75" y1="18.75" x2="28.78" y2="18.75"/>
    <line class="cls-1" x1="25.72" y1="18.75" x2="12.75" y2="18.75"/>
    <line class="cls-1" x1="40.75" y1="23.75" x2="35.78" y2="23.75"/>
    <line class="cls-1" x1="32.72" y1="23.75" x2="12.75" y2="23.75"/>
    <line class="cls-1" x1="30.75" y1="28.75" x2="24.25" y2="28.75"/>
    <line class="cls-1" x1="21.19" y1="28.75" x2="12.75" y2="28.75"/>
    <line class="cls-1" x1="12.75" y1="33.75" x2="27.75" y2="33.75"/>
  </g>
</svg>
