<svg id="Layer_1" data-name="Layer 1" xmlns="http://www.w3.org/2000/svg" viewBox="0 0 46.5 55.5">
  <defs>
    <style>
      .cls-1 {
        fill: #fff;
        stroke: #71c0ad;
        stroke-linecap: round;
        stroke-linejoin: round;
        stroke-width: 1.5px;
      }
    </style>
  </defs>
  <title>blank</title>
  <g>
    <path class="cls-1" d="M34.75,48.75h-30a3.9989,3.9989,0,0,1-4-4v-40a3.9989,3.9989,0,0,1,4-4h20l10,10Z"/>
    <circle class="cls-1" cx="34.75" cy="43.75" r="11"/>
    <path class="cls-1" d="M31.2431,46.5s-.0494,3.1323,3.6544,3.1323c4.3952.08,4.7162-5.1232,0-6.0257-5.5228-.9822-3.531-5.8665.0247-5.7869A3.0919,3.0919,0,0,1,38.28,41.1907"/>
    <line class="cls-1" x1="34.75" y1="37.8237" x2="34.75" y2="36.175"/>
    <line class="cls-1" x1="34.75" y1="51.325" x2="34.75" y2="49.6318"/>
    <line class="cls-1" x1="11.2765" y1="18.75" x2="7.3565" y2="18.75"/>
    <line class="cls-1" x1="30.3565" y1="18.75" x2="14.3265" y2="18.75"/>
    <line class="cls-1" x1="30.3565" y1="23.75" x2="20.3865" y2="23.75"/>
    <line class="cls-1" x1="17.3265" y1="23.75" x2="4.3565" y2="23.75"/>
    <line class="cls-1" x1="30.3565" y1="28.75" x2="27.3865" y2="28.75"/>
    <line class="cls-1" x1="24.3265" y1="28.75" x2="4.3565" y2="28.75"/>
    <line class="cls-1" x1="22.3565" y1="33.75" x2="15.8565" y2="33.75"/>
    <line class="cls-1" x1="12.7965" y1="33.75" x2="4.3565" y2="33.75"/>
    <line class="cls-1" x1="4.3565" y1="38.75" x2="19.3565" y2="38.75"/>
    <rect class="cls-1" x="4.3565" y="8.1583" width="26" height="4.9273"/>
    <path class="cls-1" d="M34.75,10.75h-6a3.9989,3.9989,0,0,1-4-4v-6Z"/>
  </g>
</svg>
