<svg id="Layer_1" data-name="Layer 1" xmlns="http://www.w3.org/2000/svg" viewBox="0 0 55.6743 55.0434">
  <defs>
    <style>
      .cls-1 {
        fill: #fff;
        stroke: #71c0ad;
        stroke-linecap: round;
        stroke-linejoin: round;
        stroke-width: 1.5px;
      }
    </style>
  </defs>
  <title>shield</title>
  <g>
    <path class="cls-1" d="M45.6456,21.867c0,16.0489-17.8087,21.117-17.8087,21.117h0S10.0287,37.9159,10.0287,21.867V7.2115S21.338,6.8974,27.8373.75h0c6.4994,6.1474,17.8087,6.4615,17.8087,6.4615Z"/>
    <circle class="cls-1" cx="27.8373" cy="20.4592" r="9.0099"/>
    <polygon class="cls-1" points="32.336 19.394 32.336 22.394 29.336 22.394 29.336 25.394 26.336 25.394 26.336 22.394 23.336 22.394 23.336 19.394 26.336 19.394 26.336 16.394 29.336 16.394 29.336 19.394 32.336 19.394"/>
    <g>
      <polygon class="cls-1" points="4.89 46.419 5.867 49.427 9.03 49.427 6.471 51.286 7.449 54.293 4.89 52.434 2.331 54.293 3.309 51.286 0.75 49.427 3.913 49.427 4.89 46.419"/>
      <polygon class="cls-1" points="16.364 46.419 17.341 49.427 20.504 49.427 17.945 51.286 18.922 54.293 16.364 52.434 13.805 54.293 14.782 51.286 12.224 49.427 15.386 49.427 16.364 46.419"/>
      <polygon class="cls-1" points="27.837 46.419 28.814 49.427 31.977 49.427 29.418 51.286 30.396 54.293 27.837 52.434 25.278 54.293 26.256 51.286 23.697 49.427 26.86 49.427 27.837 46.419"/>
      <polygon class="cls-1" points="39.311 46.419 40.288 49.427 43.451 49.427 40.892 51.286 41.869 54.293 39.311 52.434 36.752 54.293 37.729 51.286 35.171 49.427 38.333 49.427 39.311 46.419"/>
      <polygon class="cls-1" points="50.784 46.419 51.762 49.427 54.924 49.427 52.366 51.286 53.343 54.293 50.784 52.434 48.226 54.293 49.203 51.286 46.644 49.427 49.807 49.427 50.784 46.419"/>
    </g>
  </g>
</svg>
